<mxfile host="app.diagrams.net" modified="2023-10-12T18:12:26.203Z" agent="Mozilla/5.0 (Windows NT 10.0; Win64; x64) AppleWebKit/537.36 (KHTML, like Gecko) Chrome/117.0.0.0 Safari/537.36" etag="1O47fFRWzIfO7C52n_DV" version="22.0.4" type="device">
  <diagram id="C5RBs43oDa-KdzZeNtuy" name="Page-1">
    <mxGraphModel dx="1434" dy="782" grid="1" gridSize="10" guides="1" tooltips="1" connect="1" arrows="1" fold="1" page="1" pageScale="1" pageWidth="827" pageHeight="1169" math="0" shadow="0">
      <root>
        <mxCell id="WIyWlLk6GJQsqaUBKTNV-0" />
        <mxCell id="WIyWlLk6GJQsqaUBKTNV-1" parent="WIyWlLk6GJQsqaUBKTNV-0" />
        <mxCell id="1VSQ5CKJKTDArW-_HoPs-44" value="" style="group" parent="WIyWlLk6GJQsqaUBKTNV-1" vertex="1" connectable="0">
          <mxGeometry x="600" y="160" width="180" height="120" as="geometry" />
        </mxCell>
        <mxCell id="1VSQ5CKJKTDArW-_HoPs-36" value="" style="whiteSpace=wrap;html=1;fontSize=14;container=0;" parent="1VSQ5CKJKTDArW-_HoPs-44" vertex="1">
          <mxGeometry width="180" height="120" as="geometry" />
        </mxCell>
        <mxCell id="1VSQ5CKJKTDArW-_HoPs-37" value="&lt;font style=&quot;font-size: 14px;&quot;&gt;Function.prototype&lt;/font&gt;" style="rounded=0;whiteSpace=wrap;html=1;spacing=2;fontSize=14;container=0;" parent="1VSQ5CKJKTDArW-_HoPs-44" vertex="1">
          <mxGeometry width="180" height="40" as="geometry" />
        </mxCell>
        <mxCell id="1VSQ5CKJKTDArW-_HoPs-38" value="&amp;lt;built-in&amp;gt;" style="rounded=0;whiteSpace=wrap;html=1;fontSize=14;container=0;" parent="1VSQ5CKJKTDArW-_HoPs-44" vertex="1">
          <mxGeometry y="40" width="180" height="40" as="geometry" />
        </mxCell>
        <mxCell id="1VSQ5CKJKTDArW-_HoPs-39" value="[[Prototype]]" style="rounded=0;whiteSpace=wrap;html=1;fontSize=14;container=0;" parent="1VSQ5CKJKTDArW-_HoPs-44" vertex="1">
          <mxGeometry y="80" width="90" height="40" as="geometry" />
        </mxCell>
        <mxCell id="1VSQ5CKJKTDArW-_HoPs-41" value="" style="rounded=0;whiteSpace=wrap;html=1;fontSize=14;container=0;" parent="1VSQ5CKJKTDArW-_HoPs-44" vertex="1">
          <mxGeometry x="90" y="80" width="90" height="40" as="geometry" />
        </mxCell>
        <mxCell id="1VSQ5CKJKTDArW-_HoPs-45" value="" style="group" parent="WIyWlLk6GJQsqaUBKTNV-1" vertex="1" connectable="0">
          <mxGeometry x="600" y="340" width="180" height="120" as="geometry" />
        </mxCell>
        <mxCell id="1VSQ5CKJKTDArW-_HoPs-46" value="" style="whiteSpace=wrap;html=1;fontSize=14;container=0;" parent="1VSQ5CKJKTDArW-_HoPs-45" vertex="1">
          <mxGeometry width="180" height="120" as="geometry" />
        </mxCell>
        <mxCell id="1VSQ5CKJKTDArW-_HoPs-47" value="&lt;font style=&quot;font-size: 14px;&quot;&gt;Object.prototype&lt;/font&gt;" style="rounded=0;whiteSpace=wrap;html=1;spacing=2;fontSize=14;container=0;" parent="1VSQ5CKJKTDArW-_HoPs-45" vertex="1">
          <mxGeometry width="180" height="40" as="geometry" />
        </mxCell>
        <mxCell id="1VSQ5CKJKTDArW-_HoPs-48" value="&amp;lt;built-in&amp;gt;" style="rounded=0;whiteSpace=wrap;html=1;fontSize=14;container=0;" parent="1VSQ5CKJKTDArW-_HoPs-45" vertex="1">
          <mxGeometry y="40" width="180" height="40" as="geometry" />
        </mxCell>
        <mxCell id="1VSQ5CKJKTDArW-_HoPs-49" value="[[Prototype]]" style="rounded=0;whiteSpace=wrap;html=1;fontSize=14;container=0;" parent="1VSQ5CKJKTDArW-_HoPs-45" vertex="1">
          <mxGeometry y="80" width="90" height="40" as="geometry" />
        </mxCell>
        <mxCell id="1VSQ5CKJKTDArW-_HoPs-50" value="null" style="rounded=0;whiteSpace=wrap;html=1;fontSize=14;container=0;" parent="1VSQ5CKJKTDArW-_HoPs-45" vertex="1">
          <mxGeometry x="90" y="80" width="90" height="40" as="geometry" />
        </mxCell>
        <mxCell id="1VSQ5CKJKTDArW-_HoPs-57" value="" style="group" parent="WIyWlLk6GJQsqaUBKTNV-1" vertex="1" connectable="0">
          <mxGeometry x="19" y="270" width="180" height="160" as="geometry" />
        </mxCell>
        <mxCell id="1VSQ5CKJKTDArW-_HoPs-58" value="" style="whiteSpace=wrap;html=1;fontSize=14;" parent="1VSQ5CKJKTDArW-_HoPs-57" vertex="1">
          <mxGeometry width="180" height="160" as="geometry" />
        </mxCell>
        <mxCell id="1VSQ5CKJKTDArW-_HoPs-59" value="&lt;font style=&quot;font-size: 18px;&quot;&gt;&lt;b style=&quot;&quot;&gt;Rabbit&lt;/b&gt;&lt;/font&gt;" style="rounded=0;whiteSpace=wrap;html=1;spacing=2;fontSize=14;" parent="1VSQ5CKJKTDArW-_HoPs-57" vertex="1">
          <mxGeometry width="180" height="40" as="geometry" />
        </mxCell>
        <mxCell id="1VSQ5CKJKTDArW-_HoPs-60" value="&amp;lt;other Properties&amp;gt;" style="rounded=0;whiteSpace=wrap;html=1;fontSize=14;" parent="1VSQ5CKJKTDArW-_HoPs-57" vertex="1">
          <mxGeometry y="40" width="180" height="40" as="geometry" />
        </mxCell>
        <mxCell id="1VSQ5CKJKTDArW-_HoPs-61" value="Prototype" style="rounded=0;whiteSpace=wrap;html=1;fontSize=14;" parent="1VSQ5CKJKTDArW-_HoPs-57" vertex="1">
          <mxGeometry y="80" width="90" height="40" as="geometry" />
        </mxCell>
        <mxCell id="1VSQ5CKJKTDArW-_HoPs-62" value="[[Prototype]]" style="rounded=0;whiteSpace=wrap;html=1;fontSize=14;" parent="1VSQ5CKJKTDArW-_HoPs-57" vertex="1">
          <mxGeometry y="120" width="90" height="40" as="geometry" />
        </mxCell>
        <mxCell id="1VSQ5CKJKTDArW-_HoPs-63" value="" style="rounded=0;whiteSpace=wrap;html=1;fontSize=14;" parent="1VSQ5CKJKTDArW-_HoPs-57" vertex="1">
          <mxGeometry x="90" y="80" width="90" height="40" as="geometry" />
        </mxCell>
        <mxCell id="0pdtjaW-TlmQ6080ZGJn-8" value="" style="group" parent="WIyWlLk6GJQsqaUBKTNV-1" vertex="1" connectable="0">
          <mxGeometry x="319" y="350" width="180" height="160" as="geometry" />
        </mxCell>
        <mxCell id="1VSQ5CKJKTDArW-_HoPs-72" value="" style="whiteSpace=wrap;html=1;fontSize=14;container=0;" parent="0pdtjaW-TlmQ6080ZGJn-8" vertex="1">
          <mxGeometry width="180" height="160" as="geometry" />
        </mxCell>
        <mxCell id="1VSQ5CKJKTDArW-_HoPs-73" value="Rabbit.prototype" style="rounded=0;whiteSpace=wrap;html=1;spacing=2;fontSize=14;container=0;" parent="0pdtjaW-TlmQ6080ZGJn-8" vertex="1">
          <mxGeometry width="180" height="40" as="geometry" />
        </mxCell>
        <mxCell id="1VSQ5CKJKTDArW-_HoPs-74" value="Constructor" style="rounded=0;whiteSpace=wrap;html=1;fontSize=14;container=0;" parent="0pdtjaW-TlmQ6080ZGJn-8" vertex="1">
          <mxGeometry y="40" width="90" height="40" as="geometry" />
        </mxCell>
        <mxCell id="1VSQ5CKJKTDArW-_HoPs-75" value="hide" style="rounded=0;whiteSpace=wrap;html=1;fontSize=14;container=0;" parent="0pdtjaW-TlmQ6080ZGJn-8" vertex="1">
          <mxGeometry y="80" width="90" height="40" as="geometry" />
        </mxCell>
        <mxCell id="1VSQ5CKJKTDArW-_HoPs-76" value="" style="rounded=0;whiteSpace=wrap;html=1;fontSize=14;container=0;" parent="0pdtjaW-TlmQ6080ZGJn-8" vertex="1">
          <mxGeometry x="90" y="40" width="90" height="40" as="geometry" />
        </mxCell>
        <mxCell id="1VSQ5CKJKTDArW-_HoPs-78" value="[[Prototype]]" style="rounded=0;whiteSpace=wrap;html=1;fontSize=14;container=0;" parent="0pdtjaW-TlmQ6080ZGJn-8" vertex="1">
          <mxGeometry y="120" width="90" height="40" as="geometry" />
        </mxCell>
        <mxCell id="1VSQ5CKJKTDArW-_HoPs-79" value="fn" style="rounded=0;whiteSpace=wrap;html=1;fontSize=14;container=0;" parent="0pdtjaW-TlmQ6080ZGJn-8" vertex="1">
          <mxGeometry x="90" y="80" width="90" height="40" as="geometry" />
        </mxCell>
        <mxCell id="0pdtjaW-TlmQ6080ZGJn-32" value="" style="endArrow=classic;html=1;rounded=0;entryX=1;entryY=0.5;entryDx=0;entryDy=0;strokeColor=#0000FF;" parent="0pdtjaW-TlmQ6080ZGJn-8" target="0pdtjaW-TlmQ6080ZGJn-11" edge="1">
          <mxGeometry width="50" height="50" relative="1" as="geometry">
            <mxPoint x="180" y="140" as="sourcePoint" />
            <mxPoint x="200" y="-230" as="targetPoint" />
            <Array as="points">
              <mxPoint x="240" y="140" />
              <mxPoint x="240" y="-210" />
            </Array>
          </mxGeometry>
        </mxCell>
        <mxCell id="0pdtjaW-TlmQ6080ZGJn-27" value="" style="endArrow=classic;html=1;rounded=0;entryX=0;entryY=0.5;entryDx=0;entryDy=0;exitX=1;exitY=0.5;exitDx=0;exitDy=0;" parent="WIyWlLk6GJQsqaUBKTNV-1" source="1VSQ5CKJKTDArW-_HoPs-11" target="0pdtjaW-TlmQ6080ZGJn-11" edge="1">
          <mxGeometry width="50" height="50" relative="1" as="geometry">
            <mxPoint x="249" y="150" as="sourcePoint" />
            <mxPoint x="299" y="100" as="targetPoint" />
            <Array as="points" />
          </mxGeometry>
        </mxCell>
        <mxCell id="0pdtjaW-TlmQ6080ZGJn-28" style="edgeStyle=orthogonalEdgeStyle;rounded=0;orthogonalLoop=1;jettySize=auto;html=1;exitX=1;exitY=0.5;exitDx=0;exitDy=0;entryX=0;entryY=0.5;entryDx=0;entryDy=0;" parent="WIyWlLk6GJQsqaUBKTNV-1" source="1VSQ5CKJKTDArW-_HoPs-63" target="1VSQ5CKJKTDArW-_HoPs-73" edge="1">
          <mxGeometry relative="1" as="geometry">
            <Array as="points">
              <mxPoint x="299" y="370" />
              <mxPoint x="299" y="370" />
            </Array>
          </mxGeometry>
        </mxCell>
        <mxCell id="0pdtjaW-TlmQ6080ZGJn-29" value="" style="endArrow=classic;html=1;rounded=0;entryX=1;entryY=0.5;entryDx=0;entryDy=0;exitX=0.993;exitY=0.88;exitDx=0;exitDy=0;exitPerimeter=0;strokeColor=#0000FF;" parent="WIyWlLk6GJQsqaUBKTNV-1" source="1VSQ5CKJKTDArW-_HoPs-58" target="1VSQ5CKJKTDArW-_HoPs-6" edge="1">
          <mxGeometry width="50" height="50" relative="1" as="geometry">
            <mxPoint x="249" y="410" as="sourcePoint" />
            <mxPoint x="299" y="360" as="targetPoint" />
            <Array as="points">
              <mxPoint x="239" y="410" />
              <mxPoint x="240" y="80" />
              <mxPoint x="220" y="80" />
            </Array>
          </mxGeometry>
        </mxCell>
        <mxCell id="0pdtjaW-TlmQ6080ZGJn-31" value="" style="endArrow=classic;html=1;rounded=0;exitX=1;exitY=0.5;exitDx=0;exitDy=0;entryX=1;entryY=0.5;entryDx=0;entryDy=0;strokeColor=#D71002;" parent="WIyWlLk6GJQsqaUBKTNV-1" source="1VSQ5CKJKTDArW-_HoPs-76" target="1VSQ5CKJKTDArW-_HoPs-59" edge="1">
          <mxGeometry width="50" height="50" relative="1" as="geometry">
            <mxPoint x="499" y="330" as="sourcePoint" />
            <mxPoint x="549" y="280" as="targetPoint" />
            <Array as="points">
              <mxPoint x="529" y="410" />
              <mxPoint x="529" y="340" />
              <mxPoint x="399" y="340" />
              <mxPoint x="269" y="340" />
              <mxPoint x="269" y="290" />
            </Array>
          </mxGeometry>
        </mxCell>
        <mxCell id="0pdtjaW-TlmQ6080ZGJn-33" value="" style="endArrow=classic;html=1;rounded=0;exitX=1;exitY=0.5;exitDx=0;exitDy=0;entryX=1;entryY=0.5;entryDx=0;entryDy=0;fillColor=#ffe6cc;strokeColor=#D71002;" parent="WIyWlLk6GJQsqaUBKTNV-1" source="0pdtjaW-TlmQ6080ZGJn-14" target="1VSQ5CKJKTDArW-_HoPs-6" edge="1">
          <mxGeometry width="50" height="50" relative="1" as="geometry">
            <mxPoint x="419" y="320" as="sourcePoint" />
            <mxPoint x="469" y="270" as="targetPoint" />
            <Array as="points">
              <mxPoint x="529" y="180" />
              <mxPoint x="529" y="60" />
            </Array>
          </mxGeometry>
        </mxCell>
        <mxCell id="0pdtjaW-TlmQ6080ZGJn-34" value="" style="endArrow=classic;html=1;rounded=0;exitX=1.011;exitY=0.875;exitDx=0;exitDy=0;exitPerimeter=0;entryX=0;entryY=0.5;entryDx=0;entryDy=0;" parent="WIyWlLk6GJQsqaUBKTNV-1" source="1VSQ5CKJKTDArW-_HoPs-5" target="1VSQ5CKJKTDArW-_HoPs-37" edge="1">
          <mxGeometry width="50" height="50" relative="1" as="geometry">
            <mxPoint x="419" y="320" as="sourcePoint" />
            <mxPoint x="469" y="270" as="targetPoint" />
            <Array as="points">
              <mxPoint x="280" y="215" />
              <mxPoint x="280" y="80" />
              <mxPoint x="579" y="80" />
              <mxPoint x="580" y="180" />
            </Array>
          </mxGeometry>
        </mxCell>
        <mxCell id="0pdtjaW-TlmQ6080ZGJn-35" style="edgeStyle=orthogonalEdgeStyle;rounded=0;orthogonalLoop=1;jettySize=auto;html=1;exitX=1;exitY=0.5;exitDx=0;exitDy=0;entryX=1;entryY=0.5;entryDx=0;entryDy=0;" parent="WIyWlLk6GJQsqaUBKTNV-1" source="1VSQ5CKJKTDArW-_HoPs-41" target="1VSQ5CKJKTDArW-_HoPs-47" edge="1">
          <mxGeometry relative="1" as="geometry">
            <Array as="points">
              <mxPoint x="810" y="260" />
              <mxPoint x="810" y="360" />
            </Array>
          </mxGeometry>
        </mxCell>
        <mxCell id="0pdtjaW-TlmQ6080ZGJn-36" value="" style="endArrow=classic;html=1;rounded=0;exitX=1;exitY=0.896;exitDx=0;exitDy=0;exitPerimeter=0;entryX=1;entryY=0.5;entryDx=0;entryDy=0;" parent="WIyWlLk6GJQsqaUBKTNV-1" source="0pdtjaW-TlmQ6080ZGJn-10" target="1VSQ5CKJKTDArW-_HoPs-47" edge="1">
          <mxGeometry width="50" height="50" relative="1" as="geometry">
            <mxPoint x="419" y="320" as="sourcePoint" />
            <mxPoint x="469" y="270" as="targetPoint" />
            <Array as="points">
              <mxPoint x="540" y="263" />
              <mxPoint x="540" y="320" />
              <mxPoint x="800" y="320" />
              <mxPoint x="800" y="340" />
            </Array>
          </mxGeometry>
        </mxCell>
        <mxCell id="J7Ph32gLIiziXD_j915u-18" value="" style="group" parent="WIyWlLk6GJQsqaUBKTNV-1" vertex="1" connectable="0">
          <mxGeometry x="19" y="460" width="180" height="160" as="geometry" />
        </mxCell>
        <mxCell id="J7Ph32gLIiziXD_j915u-8" value="" style="whiteSpace=wrap;html=1;fontSize=14;container=0;" parent="J7Ph32gLIiziXD_j915u-18" vertex="1">
          <mxGeometry width="180" height="160" as="geometry" />
        </mxCell>
        <mxCell id="J7Ph32gLIiziXD_j915u-9" value="&lt;font style=&quot;font-size: 18px;&quot;&gt;&lt;b style=&quot;&quot;&gt;Rabbit1&lt;/b&gt;&lt;/font&gt;" style="rounded=0;whiteSpace=wrap;html=1;spacing=2;fontSize=14;container=0;" parent="J7Ph32gLIiziXD_j915u-18" vertex="1">
          <mxGeometry width="180" height="40" as="geometry" />
        </mxCell>
        <mxCell id="J7Ph32gLIiziXD_j915u-11" value="speed" style="rounded=0;whiteSpace=wrap;html=1;fontSize=14;container=0;" parent="J7Ph32gLIiziXD_j915u-18" vertex="1">
          <mxGeometry y="80" width="90" height="40" as="geometry" />
        </mxCell>
        <mxCell id="J7Ph32gLIiziXD_j915u-12" value="[[Prototype]]" style="rounded=0;whiteSpace=wrap;html=1;fontSize=14;container=0;" parent="J7Ph32gLIiziXD_j915u-18" vertex="1">
          <mxGeometry y="120" width="90" height="40" as="geometry" />
        </mxCell>
        <mxCell id="J7Ph32gLIiziXD_j915u-13" value="100" style="rounded=0;whiteSpace=wrap;html=1;fontSize=14;container=0;" parent="J7Ph32gLIiziXD_j915u-18" vertex="1">
          <mxGeometry x="90" y="80" width="90" height="40" as="geometry" />
        </mxCell>
        <mxCell id="J7Ph32gLIiziXD_j915u-14" value="name" style="rounded=0;whiteSpace=wrap;html=1;fontSize=14;container=0;" parent="J7Ph32gLIiziXD_j915u-18" vertex="1">
          <mxGeometry y="40" width="90" height="40" as="geometry" />
        </mxCell>
        <mxCell id="J7Ph32gLIiziXD_j915u-16" value="&quot;Yell&quot;" style="rounded=0;whiteSpace=wrap;html=1;fontSize=14;container=0;" parent="J7Ph32gLIiziXD_j915u-18" vertex="1">
          <mxGeometry x="90" y="40" width="90" height="40" as="geometry" />
        </mxCell>
        <mxCell id="J7Ph32gLIiziXD_j915u-19" value="" style="endArrow=classic;html=1;rounded=0;exitX=1;exitY=0.878;exitDx=0;exitDy=0;exitPerimeter=0;entryX=0;entryY=0.75;entryDx=0;entryDy=0;" parent="WIyWlLk6GJQsqaUBKTNV-1" source="J7Ph32gLIiziXD_j915u-8" target="1VSQ5CKJKTDArW-_HoPs-73" edge="1">
          <mxGeometry width="50" height="50" relative="1" as="geometry">
            <mxPoint x="520" y="500" as="sourcePoint" />
            <mxPoint x="570" y="450" as="targetPoint" />
            <Array as="points">
              <mxPoint x="260" y="600" />
              <mxPoint x="260" y="400" />
            </Array>
          </mxGeometry>
        </mxCell>
        <mxCell id="_N0hn6bigrdy2Qdg7McS-3" value="" style="group" parent="WIyWlLk6GJQsqaUBKTNV-1" connectable="0" vertex="1">
          <mxGeometry x="19" y="40" width="180" height="200" as="geometry" />
        </mxCell>
        <mxCell id="1VSQ5CKJKTDArW-_HoPs-5" value="" style="whiteSpace=wrap;html=1;fontSize=14;container=0;" parent="_N0hn6bigrdy2Qdg7McS-3" vertex="1">
          <mxGeometry width="180" height="200" as="geometry" />
        </mxCell>
        <mxCell id="1VSQ5CKJKTDArW-_HoPs-6" value="&lt;font style=&quot;font-size: 18px;&quot;&gt;&lt;b style=&quot;&quot;&gt;Animal&lt;/b&gt;&lt;/font&gt;" style="rounded=0;whiteSpace=wrap;html=1;spacing=2;fontSize=14;container=0;" parent="_N0hn6bigrdy2Qdg7McS-3" vertex="1">
          <mxGeometry width="180" height="40" as="geometry" />
        </mxCell>
        <mxCell id="1VSQ5CKJKTDArW-_HoPs-8" value="&amp;lt;other Properties&amp;gt;" style="rounded=0;whiteSpace=wrap;html=1;fontSize=14;container=0;" parent="_N0hn6bigrdy2Qdg7McS-3" vertex="1">
          <mxGeometry y="40" width="180" height="40" as="geometry" />
        </mxCell>
        <mxCell id="1VSQ5CKJKTDArW-_HoPs-9" value="compareBySpeed" style="rounded=0;whiteSpace=wrap;html=1;fontSize=14;container=0;" parent="_N0hn6bigrdy2Qdg7McS-3" vertex="1">
          <mxGeometry y="80" width="121" height="40" as="geometry" />
        </mxCell>
        <mxCell id="1VSQ5CKJKTDArW-_HoPs-10" value="Prototype" style="rounded=0;whiteSpace=wrap;html=1;fontSize=14;container=0;" parent="_N0hn6bigrdy2Qdg7McS-3" vertex="1">
          <mxGeometry y="120" width="121" height="40" as="geometry" />
        </mxCell>
        <mxCell id="1VSQ5CKJKTDArW-_HoPs-11" value="fn" style="rounded=0;whiteSpace=wrap;html=1;fontSize=14;container=0;" parent="_N0hn6bigrdy2Qdg7McS-3" vertex="1">
          <mxGeometry x="121" y="80" width="59" height="40" as="geometry" />
        </mxCell>
        <mxCell id="_N0hn6bigrdy2Qdg7McS-1" value="[[Prototype]]" style="rounded=0;whiteSpace=wrap;html=1;fontSize=14;container=0;" parent="_N0hn6bigrdy2Qdg7McS-3" vertex="1">
          <mxGeometry y="160" width="121" height="40" as="geometry" />
        </mxCell>
        <mxCell id="_N0hn6bigrdy2Qdg7McS-2" value="" style="rounded=0;whiteSpace=wrap;html=1;fontSize=14;container=0;" parent="_N0hn6bigrdy2Qdg7McS-3" vertex="1">
          <mxGeometry x="121" y="120" width="59" height="40" as="geometry" />
        </mxCell>
        <mxCell id="_N0hn6bigrdy2Qdg7McS-4" value="" style="group" parent="WIyWlLk6GJQsqaUBKTNV-1" connectable="0" vertex="1">
          <mxGeometry x="319" y="120" width="180" height="160" as="geometry" />
        </mxCell>
        <mxCell id="0pdtjaW-TlmQ6080ZGJn-10" value="" style="whiteSpace=wrap;html=1;fontSize=14;container=0;" parent="_N0hn6bigrdy2Qdg7McS-4" vertex="1">
          <mxGeometry width="180" height="160" as="geometry" />
        </mxCell>
        <mxCell id="0pdtjaW-TlmQ6080ZGJn-11" value="Animal.prototype" style="rounded=0;whiteSpace=wrap;html=1;spacing=2;fontSize=14;container=0;" parent="_N0hn6bigrdy2Qdg7McS-4" vertex="1">
          <mxGeometry width="180" height="40" as="geometry" />
        </mxCell>
        <mxCell id="0pdtjaW-TlmQ6080ZGJn-12" value="Constructor" style="rounded=0;whiteSpace=wrap;html=1;fontSize=14;container=0;" parent="_N0hn6bigrdy2Qdg7McS-4" vertex="1">
          <mxGeometry y="40" width="101" height="40" as="geometry" />
        </mxCell>
        <mxCell id="0pdtjaW-TlmQ6080ZGJn-13" value="run" style="rounded=0;whiteSpace=wrap;html=1;fontSize=14;container=0;" parent="_N0hn6bigrdy2Qdg7McS-4" vertex="1">
          <mxGeometry y="80" width="101" height="40" as="geometry" />
        </mxCell>
        <mxCell id="0pdtjaW-TlmQ6080ZGJn-14" value="" style="rounded=0;whiteSpace=wrap;html=1;fontSize=14;container=0;" parent="_N0hn6bigrdy2Qdg7McS-4" vertex="1">
          <mxGeometry x="101" y="40" width="79" height="40" as="geometry" />
        </mxCell>
        <mxCell id="0pdtjaW-TlmQ6080ZGJn-15" value="[[Prototype]]" style="rounded=0;whiteSpace=wrap;html=1;fontSize=14;container=0;" parent="_N0hn6bigrdy2Qdg7McS-4" vertex="1">
          <mxGeometry y="120" width="101" height="40" as="geometry" />
        </mxCell>
        <mxCell id="0pdtjaW-TlmQ6080ZGJn-16" value="fn" style="rounded=0;whiteSpace=wrap;html=1;fontSize=14;container=0;" parent="_N0hn6bigrdy2Qdg7McS-4" vertex="1">
          <mxGeometry x="101" y="80" width="79" height="40" as="geometry" />
        </mxCell>
      </root>
    </mxGraphModel>
  </diagram>
</mxfile>
